<svg width="16" height="16" viewBox="0 0 16 16" fill="none" xmlns="http://www.w3.org/2000/svg">
<g clip-path="url(#clip0_0_7)">
<path d="M8.00684 0.665039C11.9237 0.665153 15.1399 3.76564 15.3262 7.68262L15.335 8.06445V8.06641C15.3348 11.2126 13.3902 13.8915 10.6494 14.9648C10.6505 14.843 10.6519 14.698 10.6533 14.5332C10.6566 14.1467 10.6602 13.6574 10.6602 13.1143C10.6602 12.7399 10.6053 12.4046 10.5117 12.1104C11.1635 11.9552 11.8233 11.6937 12.3809 11.2236C13.2576 10.4843 13.7754 9.33113 13.7754 7.63867C13.7754 6.73715 13.5023 5.95934 13.0254 5.32422C13.1354 4.84719 13.205 4.05193 12.8271 3.09473L12.7109 2.7998L12.4092 2.7041L12.2803 3.1123C12.4031 2.72329 12.4085 2.7051 12.4082 2.7041H12.4062L12.4043 2.70312C12.4025 2.70258 12.4003 2.70173 12.3984 2.70117C12.3947 2.70007 12.3908 2.69938 12.3867 2.69824C12.3785 2.69593 12.3691 2.69282 12.3594 2.69043C12.3401 2.68569 12.3179 2.68119 12.293 2.67676C12.2426 2.66783 12.1811 2.66038 12.1084 2.65723C11.9621 2.65092 11.7729 2.6624 11.541 2.71191C11.1275 2.80025 10.5814 3.00909 9.8877 3.4502C9.36837 3.32966 8.8246 3.25775 8.2832 3.23926L8.00684 3.23438H8.00586C7.37246 3.23508 6.74138 3.30719 6.125 3.4502C5.43133 3.00911 4.88511 2.8002 4.47168 2.71191C4.23989 2.66243 4.05154 2.65092 3.90527 2.65723C3.83252 2.66037 3.77106 2.66784 3.7207 2.67676C3.69552 2.68123 3.67272 2.68565 3.65332 2.69043C3.64375 2.69279 3.6351 2.69595 3.62695 2.69824C3.623 2.69935 3.61885 2.70009 3.61523 2.70117L3.60645 2.7041H3.60547C3.60483 2.7043 3.60424 2.7048 3.80469 3.33887L3.60449 2.7041L3.30176 2.7998L3.18555 3.09473C2.8063 4.05565 2.8775 4.85371 2.98828 5.33008C2.52369 5.95868 2.23828 6.73249 2.23828 7.63867C2.23828 8.95546 2.55264 9.94647 3.10352 10.6709C2.93012 10.6042 2.73668 10.5552 2.52246 10.541L2.50098 10.5391H2.46973C2.46594 10.5391 2.46135 10.5399 2.45605 10.54C2.44525 10.5403 2.43053 10.5402 2.41406 10.541C2.38185 10.5426 2.33718 10.5454 2.28613 10.5518C2.20932 10.5613 2.01687 10.5896 1.83984 10.6943C1.74397 10.7512 1.59514 10.8641 1.50977 11.0654C1.46095 11.1806 1.44541 11.295 1.45117 11.4014C0.948549 10.3999 0.665085 9.26716 0.665039 8.06641C0.665039 3.96848 3.95127 0.665039 8.00684 0.665039ZM4.40723 14.5156C4.68401 14.5793 4.99527 14.6084 5.34473 14.5918C5.3454 14.6542 5.34598 14.7142 5.34668 14.7715C5.34752 14.8402 5.34786 14.9042 5.34863 14.9629C5.02313 14.8353 4.70832 14.6866 4.40723 14.5156ZM1.84668 12.0908C1.91711 12.1503 1.98696 12.2044 2.05273 12.249L2.09961 12.2812L2.13379 12.2969C2.13628 12.2984 2.1397 12.3001 2.14355 12.3027C2.16554 12.3175 2.20923 12.35 2.26562 12.4062C2.37594 12.5163 2.54469 12.7287 2.68945 13.1035C2.69165 13.1097 2.69442 13.1165 2.69727 13.124C2.70531 13.1453 2.71666 13.1729 2.73047 13.2041C2.73215 13.2079 2.73358 13.2119 2.73535 13.2158C2.40411 12.8717 2.10698 12.4946 1.84668 12.0908ZM4.2627 11.6582C4.65719 11.8735 5.07709 12.0167 5.49414 12.1152C5.48552 12.1429 5.47758 12.1709 5.46973 12.1992C5.333 12.2348 5.18181 12.2588 5.0332 12.2451C4.837 12.227 4.60264 12.1474 4.38086 11.8428L4.28613 11.6973C4.28476 11.6949 4.28286 11.6922 4.28125 11.6895C4.27623 11.6808 4.2701 11.6703 4.2627 11.6582Z" fill="#09090B" stroke="#FAFAFA" stroke-width="1.33"/>
</g>
<defs>
<clipPath id="clip0_0_7">
<rect width="16" height="16" fill="white"/>
</clipPath>
</defs>
</svg>
