<svg width="17" height="22" viewBox="0 0 17 22" fill="none" xmlns="http://www.w3.org/2000/svg">
<path d="M9.68659 2.11443C11.6995 2.11443 13.6555 3.03558 15.0548 4.64222L15.1319 4.73069L16.5903 3.32628L16.5244 3.24747C14.7981 1.1836 12.3063 0 9.68659 0C4.34531 0 0 4.95522 0 11.0457C0 17.1362 4.34531 22 9.68659 22C12.2959 22 14.7884 20.8275 16.5244 18.7837L16.5903 18.7057L15.1326 17.2678L15.0548 17.357C13.6346 18.9867 11.7279 19.8848 9.68659 19.8848C5.47522 19.8848 2.04881 15.9192 2.04881 11.045C2.04881 6.17079 5.47522 2.11368 9.68659 2.11368V2.11443Z" fill="#9A73B8"/>
</svg>
